<svg width="22" height="22" viewBox="0 0 22 22" fill="none" xmlns="http://www.w3.org/2000/svg">
<path d="M15.749 13C16.0142 13 16.2686 12.8946 16.4561 12.7071C16.6437 12.5196 16.749 12.2652 16.749 12C16.749 11.7348 16.6437 11.4804 16.4561 11.2929C16.2686 11.1054 16.0142 11 15.749 11C15.4838 11 15.2295 11.1054 15.0419 11.2929C14.8544 11.4804 14.749 11.7348 14.749 12C14.749 12.2652 14.8544 12.5196 15.0419 12.7071C15.2295 12.8946 15.4838 13 15.749 13ZM15.749 17C16.0142 17 16.2686 16.8946 16.4561 16.7071C16.6437 16.5196 16.749 16.2652 16.749 16C16.749 15.7348 16.6437 15.4804 16.4561 15.2929C16.2686 15.1054 16.0142 15 15.749 15C15.4838 15 15.2295 15.1054 15.0419 15.2929C14.8544 15.4804 14.749 15.7348 14.749 16C14.749 16.2652 14.8544 16.5196 15.0419 16.7071C15.2295 16.8946 15.4838 17 15.749 17ZM11.749 12C11.749 12.2652 11.6437 12.5196 11.4561 12.7071C11.2686 12.8946 11.0142 13 10.749 13C10.4838 13 10.2295 12.8946 10.0419 12.7071C9.85438 12.5196 9.74902 12.2652 9.74902 12C9.74902 11.7348 9.85438 11.4804 10.0419 11.2929C10.2295 11.1054 10.4838 11 10.749 11C11.0142 11 11.2686 11.1054 11.4561 11.2929C11.6437 11.4804 11.749 11.7348 11.749 12ZM11.749 16C11.749 16.2652 11.6437 16.5196 11.4561 16.7071C11.2686 16.8946 11.0142 17 10.749 17C10.4838 17 10.2295 16.8946 10.0419 16.7071C9.85438 16.5196 9.74902 16.2652 9.74902 16C9.74902 15.7348 9.85438 15.4804 10.0419 15.2929C10.2295 15.1054 10.4838 15 10.749 15C11.0142 15 11.2686 15.1054 11.4561 15.2929C11.6437 15.4804 11.749 15.7348 11.749 16ZM5.74902 13C6.01424 13 6.26859 12.8946 6.45613 12.7071C6.64367 12.5196 6.74902 12.2652 6.74902 12C6.74902 11.7348 6.64367 11.4804 6.45613 11.2929C6.26859 11.1054 6.01424 11 5.74902 11C5.48381 11 5.22945 11.1054 5.04192 11.2929C4.85438 11.4804 4.74902 11.7348 4.74902 12C4.74902 12.2652 4.85438 12.5196 5.04192 12.7071C5.22945 12.8946 5.48381 13 5.74902 13ZM5.74902 17C6.01424 17 6.26859 16.8946 6.45613 16.7071C6.64367 16.5196 6.74902 16.2652 6.74902 16C6.74902 15.7348 6.64367 15.4804 6.45613 15.2929C6.26859 15.1054 6.01424 15 5.74902 15C5.48381 15 5.22945 15.1054 5.04192 15.2929C4.85438 15.4804 4.74902 15.7348 4.74902 16C4.74902 16.2652 4.85438 16.5196 5.04192 16.7071C5.22945 16.8946 5.48381 17 5.74902 17Z" fill="#7BD554"/>
<path fill-rule="evenodd" clip-rule="evenodd" d="M5.749 0.75C5.94791 0.75 6.13868 0.829018 6.27933 0.96967C6.41998 1.11032 6.499 1.30109 6.499 1.5V2.263C7.161 2.25 7.89 2.25 8.692 2.25H12.805C13.608 2.25 14.337 2.25 14.999 2.263V1.5C14.999 1.30109 15.078 1.11032 15.2187 0.96967C15.3593 0.829018 15.5501 0.75 15.749 0.75C15.9479 0.75 16.1387 0.829018 16.2793 0.96967C16.42 1.11032 16.499 1.30109 16.499 1.5V2.327C16.759 2.347 17.005 2.372 17.238 2.403C18.41 2.561 19.359 2.893 20.108 3.641C20.856 4.39 21.188 5.339 21.346 6.511C21.499 7.651 21.499 9.106 21.499 10.944V13.056C21.499 14.894 21.499 16.35 21.346 17.489C21.188 18.661 20.856 19.61 20.108 20.359C19.359 21.107 18.41 21.439 17.238 21.597C16.098 21.75 14.643 21.75 12.805 21.75H8.694C6.856 21.75 5.4 21.75 4.261 21.597C3.089 21.439 2.14 21.107 1.391 20.359C0.643 19.61 0.311 18.661 0.153 17.489C0 16.349 0 14.894 0 13.056V10.944C0 9.106 0 7.65 0.153 6.511C0.311 5.339 0.643 4.39 1.391 3.641C2.14 2.893 3.089 2.561 4.261 2.403C4.494 2.372 4.741 2.347 5 2.327V1.5C5 1.30126 5.07888 1.11065 5.21932 0.970023C5.35975 0.8294 5.55026 0.750265 5.749 0.75ZM4.459 3.89C3.454 4.025 2.874 4.279 2.451 4.702C2.028 5.125 1.774 5.705 1.639 6.711C1.616 6.881 1.597 7.061 1.581 7.25H19.917C19.901 7.06 19.882 6.881 19.859 6.71C19.724 5.705 19.47 5.125 19.047 4.702C18.624 4.279 18.044 4.025 17.038 3.89C16.011 3.752 14.656 3.75 12.749 3.75H8.749C6.842 3.75 5.488 3.752 4.459 3.89ZM1.499 11C1.499 10.146 1.499 9.403 1.512 8.75H19.986C19.999 9.403 19.999 10.146 19.999 11V13C19.999 14.907 19.997 16.262 19.859 17.29C19.724 18.295 19.47 18.875 19.047 19.298C18.624 19.721 18.044 19.975 17.038 20.11C16.011 20.248 14.656 20.25 12.749 20.25H8.749C6.842 20.25 5.488 20.248 4.459 20.11C3.454 19.975 2.874 19.721 2.451 19.298C2.028 18.875 1.774 18.295 1.639 17.289C1.501 16.262 1.499 14.907 1.499 13V11Z" fill="#7BD554"/>
</svg>
