<svg width="26" height="26" viewBox="0 0 26 26" fill="none" xmlns="http://www.w3.org/2000/svg">
<path d="M5.40202 0.709157C5.56166 0.785913 5.69637 0.906195 5.79065 1.05615C5.88492 1.20611 5.93493 1.37964 5.93491 1.55677C5.93491 2.59748 6.32612 3.19683 6.81638 3.92659L6.85275 3.97925C7.26903 4.59866 7.81572 5.40991 7.81572 6.57225C7.81572 7.75841 7.21762 8.80414 6.30606 9.4248C6.54555 9.62542 6.75745 9.87244 6.94052 10.1684C7.53736 11.1338 7.81572 12.6096 7.81572 14.7287C7.81572 16.8753 7.52733 19.4533 7.05713 21.5121C6.82391 22.5353 6.53426 23.4794 6.18945 24.1879C6.02666 24.5404 5.81102 24.8659 5.54998 25.1533C5.29168 25.4179 4.8942 25.7 4.36758 25.7C3.84095 25.7 3.44347 25.4179 3.18643 25.1533C2.92464 24.8665 2.70891 24.5408 2.54696 24.1879C2.20089 23.4782 1.91125 22.5353 1.67803 21.5109C1.18895 19.2824 0.934698 17.0089 0.919435 14.7274C0.919435 12.6084 1.19779 11.1338 1.79464 10.1684C1.96491 9.8881 2.17913 9.63705 2.42909 9.4248C1.96362 9.10878 1.58265 8.68355 1.31948 8.18629C1.05632 7.68902 0.918964 7.13486 0.919435 6.57225C0.919435 6.11083 0.919435 5.31713 1.39967 4.29272C1.86987 3.28962 2.76388 2.13731 4.40645 0.822005C4.54488 0.711268 4.7118 0.641918 4.88795 0.621951C5.0641 0.601984 5.24231 0.632215 5.40202 0.709157ZM2.80024 6.571C2.80024 6.98668 2.96537 7.38659 3.2593 7.68053C3.55323 7.97446 3.95189 8.13959 4.36758 8.13959C4.78326 8.13959 5.18192 7.97446 5.47585 7.68053C5.76978 7.38659 5.93491 6.98794 5.93491 6.57225C5.93491 6.0218 5.70295 5.64063 5.25532 4.97482L5.24027 4.95225C4.95313 4.52594 4.61334 4.02063 4.37259 3.37238C3.69174 4.06451 3.31558 4.63878 3.10368 5.09018C2.80024 5.73717 2.80024 6.1986 2.80024 6.571ZM3.39457 11.1551C3.08361 11.6592 2.80024 12.6924 2.80024 14.7274C2.80024 16.7349 3.07358 19.1724 3.51118 21.0921C3.73186 22.0575 3.98264 22.8412 4.23717 23.3628C4.28357 23.4594 4.32745 23.5396 4.36758 23.6073C4.4077 23.5396 4.45159 23.4594 4.49798 23.3628C4.75251 22.8412 5.00329 22.0563 5.22397 21.0921C5.66282 19.1736 5.93491 16.7361 5.93491 14.7274C5.93491 12.6924 5.65154 11.6592 5.34058 11.1551C5.2468 10.9855 5.10505 10.8472 4.93307 10.7577C4.755 10.6801 4.56162 10.6441 4.36758 10.6523C4.1168 10.6523 3.9375 10.6912 3.80208 10.7577C3.63011 10.8472 3.48836 10.9855 3.39457 11.1551ZM10.9504 16.8139C10.2861 16.7024 9.63993 16.5017 9.02946 16.217C9.06616 15.5059 9.07662 14.7936 9.06081 14.0817C9.62631 14.4616 10.2645 14.7412 10.9504 14.8967V11.2743C10.9504 10.7754 11.1485 10.2971 11.5013 9.94433C11.854 9.59161 12.3324 9.39346 12.8312 9.39346H17.8467C17.8466 8.34108 17.5522 7.30969 16.9968 6.41581C16.4414 5.52194 15.6471 4.80122 14.7035 4.33507C13.76 3.86892 12.705 3.67593 11.6575 3.77791C10.6101 3.87988 9.61206 4.27275 8.77618 4.91213C8.52541 4.21874 8.16806 3.68835 7.91979 3.31971L7.86964 3.24448C8.99618 2.45034 10.3192 1.98094 11.6944 1.88753C13.0696 1.79412 14.4439 2.08028 15.6675 2.71479C16.8911 3.34929 17.9169 4.30774 18.6329 5.48552C19.3488 6.6633 19.7275 8.01514 19.7275 9.39346H24.116C24.6148 9.39346 25.0932 9.59161 25.446 9.94433C25.7987 10.2971 25.9968 10.7754 25.9968 11.2743V22.5591C25.9968 23.0579 25.7987 23.5363 25.446 23.889C25.0932 24.2417 24.6148 24.4399 24.116 24.4399H12.8312C12.3324 24.4399 11.854 24.2417 11.5013 23.889C11.1485 23.5363 10.9504 23.0579 10.9504 22.5591V16.8139ZM12.8312 16.8929V22.5603H24.116V11.2755H19.4892C19.0986 12.7865 18.248 14.1386 17.0552 15.145C15.8624 16.1514 14.3863 16.7621 12.8312 16.8929ZM17.5257 11.2755H12.8312V15.0033C13.8847 14.8852 14.8837 14.4729 15.7139 13.8137C16.5441 13.1544 17.1719 12.2749 17.5257 11.2755Z" fill="#E6A14B"/>
</svg>
