<svg width="20" height="20" viewBox="0 0 20 20" fill="none" xmlns="http://www.w3.org/2000/svg">
<path d="M3.575 0.0743217C3.70232 0.135537 3.80975 0.231466 3.88494 0.351061C3.96013 0.470656 4.00002 0.609055 4 0.750322C4 1.58032 4.312 2.05832 4.703 2.64032L4.732 2.68232C5.064 3.17632 5.5 3.82332 5.5 4.75032C5.5 5.69632 5.023 6.53032 4.296 7.02532C4.487 7.18532 4.656 7.38232 4.802 7.61832C5.278 8.38832 5.5 9.56532 5.5 11.2553C5.5 12.9673 5.27 15.0233 4.895 16.6653C4.709 17.4813 4.478 18.2343 4.203 18.7993C4.07317 19.0804 3.90119 19.3401 3.693 19.5693C3.487 19.7803 3.17 20.0053 2.75 20.0053C2.33 20.0053 2.013 19.7803 1.808 19.5693C1.59921 19.3406 1.42717 19.0808 1.298 18.7993C1.022 18.2333 0.791001 17.4813 0.605001 16.6643C0.214947 14.8871 0.0121739 13.0738 9.63504e-07 11.2543C9.63504e-07 9.56432 0.222001 8.38832 0.698001 7.61832C0.833798 7.39482 1.00464 7.19459 1.204 7.02532C0.832775 6.77329 0.528938 6.43415 0.319053 6.03757C0.109168 5.64098 -0.000374806 5.19902 9.63504e-07 4.75032C9.63504e-07 4.38232 8.64267e-07 3.74932 0.383001 2.93232C0.758001 2.13232 1.471 1.21332 2.781 0.164322C2.89141 0.0760059 3.02453 0.0206966 3.16502 0.0047726C3.3055 -0.0111514 3.44763 0.0129584 3.575 0.0743217ZM1.5 4.74932C1.5 5.08084 1.6317 5.39979 1.86612 5.63421C2.10054 5.86863 2.41848 6.00032 2.75 6.00032C3.08152 6.00032 3.39946 5.86863 3.63388 5.63421C3.8683 5.39979 4 5.08184 4 4.75032C4 4.31132 3.815 4.00732 3.458 3.47632L3.446 3.45832C3.217 3.11832 2.946 2.71532 2.754 2.19832C2.211 2.75032 1.911 3.20832 1.742 3.56832C1.5 4.08432 1.5 4.45232 1.5 4.74932ZM1.974 8.40532C1.726 8.80732 1.5 9.63132 1.5 11.2543C1.5 12.8553 1.718 14.7993 2.067 16.3303C2.243 17.1003 2.443 17.7253 2.646 18.1413C2.683 18.2183 2.718 18.2823 2.75 18.3363C2.782 18.2823 2.817 18.2183 2.854 18.1413C3.057 17.7253 3.257 17.0993 3.433 16.3303C3.783 14.8003 4 12.8563 4 11.2543C4 9.63132 3.774 8.80732 3.526 8.40532C3.45121 8.26999 3.33816 8.15972 3.201 8.08832C3.05899 8.02647 2.90476 7.99775 2.75 8.00432C2.55 8.00432 2.407 8.03532 2.299 8.08832C2.16184 8.15972 2.04879 8.26999 1.974 8.40532ZM8 12.9183C7.47021 12.8295 6.95487 12.6693 6.468 12.4423C6.49727 11.8752 6.50561 11.3071 6.493 10.7393C6.944 11.0423 7.453 11.2653 8 11.3893V8.50032C8 8.1025 8.15804 7.72097 8.43934 7.43966C8.72064 7.15836 9.10218 7.00032 9.5 7.00032H13.5C13.5 6.16102 13.2652 5.33845 12.8222 4.62556C12.3792 3.91267 11.7457 3.33787 10.9933 2.9661C10.2408 2.59433 9.39932 2.44042 8.56396 2.52174C7.72861 2.60307 6.93264 2.9164 6.266 3.42632C6.066 2.87332 5.781 2.45032 5.583 2.15632L5.543 2.09632C6.44146 1.46297 7.49664 1.08861 8.59337 1.01411C9.6901 0.939611 10.7862 1.16784 11.7621 1.67387C12.7379 2.17991 13.556 2.94431 14.127 3.88362C14.698 4.82294 15 5.90107 15 7.00032H18.5C18.8978 7.00032 19.2794 7.15836 19.5607 7.43966C19.842 7.72097 20 8.1025 20 8.50032V17.5003C20 17.8981 19.842 18.2797 19.5607 18.561C19.2794 18.8423 18.8978 19.0003 18.5 19.0003H9.5C9.10218 19.0003 8.72064 18.8423 8.43934 18.561C8.15804 18.2797 8 17.8981 8 17.5003V12.9183ZM9.5 12.9813V17.5013H18.5V8.50132H14.81C14.4984 9.70634 13.8201 10.7848 12.8688 11.5874C11.9175 12.39 10.7403 12.8771 9.5 12.9813ZM13.244 8.50132H9.5V11.4743C10.3402 11.3801 11.1369 11.0513 11.799 10.5256C12.4611 9.99982 12.9619 9.29832 13.244 8.50132Z" fill="#7BD554"/>
</svg>
