<svg width="71" height="67" viewBox="0 0 71 67" fill="none" xmlns="http://www.w3.org/2000/svg">
<path d="M35.5 66.2389C16.2742 66.2389 0.72998 51.4326 0.72998 33.1195C0.72998 14.8063 16.2742 0 35.5 0C54.7257 0 70.27 14.8063 70.27 33.1195C70.27 51.4326 54.7257 66.2389 35.5 66.2389ZM35.5 3.89641C18.524 3.89641 4.82057 16.9494 4.82057 33.1195C4.82057 49.2895 18.524 62.3425 35.5 62.3425C52.4759 62.3425 66.1794 49.2895 66.1794 33.1195C66.1794 16.9494 52.4759 3.89641 35.5 3.89641Z" fill="#7BD554"/>
<path d="M30.23 39.7761L22.355 31.9403L19.73 34.5522L30.23 45L52.73 22.6119L50.105 20L40.1675 29.8881L30.23 39.7761Z" fill="#7BD554"/>
</svg>
