<svg width="305" height="69" viewBox="0 0 305 69" fill="none" xmlns="http://www.w3.org/2000/svg">
<circle cx="142.478" cy="63.8695" r="4.91304" transform="rotate(180 142.478 63.8695)" fill="#E6A14B" fill-opacity="0.3"/>
<circle cx="122.826" cy="63.8695" r="4.91304" transform="rotate(180 122.826 63.8695)" fill="#E6A14B" fill-opacity="0.3"/>
<circle cx="103.174" cy="63.8695" r="4.91304" transform="rotate(180 103.174 63.8695)" fill="#E6A14B" fill-opacity="0.3"/>
<circle cx="83.5217" cy="63.8695" r="4.91304" transform="rotate(180 83.5217 63.8695)" fill="#E6A14B" fill-opacity="0.3"/>
<circle cx="63.8695" cy="63.8695" r="4.91304" transform="rotate(180 63.8695 63.8695)" fill="#E6A14B" fill-opacity="0.3"/>
<circle cx="44.2173" cy="63.8695" r="4.91304" transform="rotate(180 44.2173 63.8695)" fill="#E6A14B" fill-opacity="0.3"/>
<circle cx="24.5652" cy="63.8695" r="4.91304" transform="rotate(180 24.5652 63.8695)" fill="#E6A14B" fill-opacity="0.3"/>
<circle cx="4.91304" cy="63.8695" r="4.91304" transform="rotate(180 4.91304 63.8695)" fill="#E6A14B" fill-opacity="0.3"/>
<circle cx="142.478" cy="44.2177" r="4.91304" transform="rotate(180 142.478 44.2177)" fill="#E6A14B" fill-opacity="0.3"/>
<circle cx="122.826" cy="44.2173" r="4.91304" transform="rotate(180 122.826 44.2173)" fill="#E6A14B" fill-opacity="0.3"/>
<circle cx="103.174" cy="44.2173" r="4.91304" transform="rotate(180 103.174 44.2173)" fill="#E6A14B" fill-opacity="0.3"/>
<circle cx="83.5217" cy="44.2173" r="4.91304" transform="rotate(180 83.5217 44.2173)" fill="#E6A14B" fill-opacity="0.3"/>
<circle cx="63.8695" cy="44.2173" r="4.91304" transform="rotate(180 63.8695 44.2173)" fill="#E6A14B" fill-opacity="0.3"/>
<circle cx="44.2173" cy="44.2173" r="4.91304" transform="rotate(180 44.2173 44.2173)" fill="#E6A14B" fill-opacity="0.3"/>
<circle cx="24.5652" cy="44.2173" r="4.91304" transform="rotate(180 24.5652 44.2173)" fill="#E6A14B" fill-opacity="0.3"/>
<circle cx="4.91304" cy="44.2173" r="4.91304" transform="rotate(180 4.91304 44.2173)" fill="#E6A14B" fill-opacity="0.3"/>
<circle cx="142.478" cy="24.5653" r="4.91304" transform="rotate(180 142.478 24.5653)" fill="#E6A14B" fill-opacity="0.3"/>
<circle cx="122.826" cy="24.5652" r="4.91304" transform="rotate(180 122.826 24.5652)" fill="#E6A14B" fill-opacity="0.3"/>
<circle cx="103.174" cy="24.5652" r="4.91304" transform="rotate(180 103.174 24.5652)" fill="#E6A14B" fill-opacity="0.3"/>
<circle cx="83.5217" cy="24.5652" r="4.91304" transform="rotate(180 83.5217 24.5652)" fill="#E6A14B" fill-opacity="0.3"/>
<circle cx="63.8695" cy="24.5652" r="4.91304" transform="rotate(180 63.8695 24.5652)" fill="#E6A14B" fill-opacity="0.3"/>
<circle cx="44.2173" cy="24.5652" r="4.91304" transform="rotate(180 44.2173 24.5652)" fill="#E6A14B" fill-opacity="0.3"/>
<circle cx="24.5652" cy="24.5652" r="4.91304" transform="rotate(180 24.5652 24.5652)" fill="#E6A14B" fill-opacity="0.3"/>
<circle cx="4.91304" cy="24.5652" r="4.91304" transform="rotate(180 4.91304 24.5652)" fill="#E6A14B" fill-opacity="0.3"/>
<circle cx="142.478" cy="4.91301" r="4.91304" transform="rotate(180 142.478 4.91301)" fill="#E6A14B" fill-opacity="0.3"/>
<circle cx="122.826" cy="4.91301" r="4.91304" transform="rotate(180 122.826 4.91301)" fill="#E6A14B" fill-opacity="0.3"/>
<circle cx="103.174" cy="4.91301" r="4.91304" transform="rotate(180 103.174 4.91301)" fill="#E6A14B" fill-opacity="0.3"/>
<circle cx="83.5217" cy="4.91301" r="4.91304" transform="rotate(180 83.5217 4.91301)" fill="#E6A14B" fill-opacity="0.3"/>
<circle cx="63.8695" cy="4.91301" r="4.91304" transform="rotate(180 63.8695 4.91301)" fill="#E6A14B" fill-opacity="0.3"/>
<circle cx="44.2173" cy="4.91301" r="4.91304" transform="rotate(180 44.2173 4.91301)" fill="#E6A14B" fill-opacity="0.3"/>
<circle cx="24.5652" cy="4.91301" r="4.91304" transform="rotate(180 24.5652 4.91301)" fill="#E6A14B" fill-opacity="0.3"/>
<circle cx="4.91304" cy="4.91301" r="4.91304" transform="rotate(180 4.91304 4.91301)" fill="#E6A14B" fill-opacity="0.3"/>
<circle cx="299.478" cy="63.8695" r="4.91304" transform="rotate(180 299.478 63.8695)" fill="#E6A14B" fill-opacity="0.3"/>
<circle cx="279.826" cy="63.8695" r="4.91304" transform="rotate(180 279.826 63.8695)" fill="#E6A14B" fill-opacity="0.3"/>
<circle cx="260.174" cy="63.8695" r="4.91304" transform="rotate(180 260.174 63.8695)" fill="#E6A14B" fill-opacity="0.3"/>
<circle cx="240.522" cy="63.8695" r="4.91304" transform="rotate(180 240.522 63.8695)" fill="#E6A14B" fill-opacity="0.3"/>
<circle cx="220.869" cy="63.8695" r="4.91304" transform="rotate(180 220.869 63.8695)" fill="#E6A14B" fill-opacity="0.3"/>
<circle cx="201.217" cy="63.8695" r="4.91304" transform="rotate(180 201.217 63.8695)" fill="#E6A14B" fill-opacity="0.3"/>
<circle cx="181.565" cy="63.8695" r="4.91304" transform="rotate(180 181.565 63.8695)" fill="#E6A14B" fill-opacity="0.3"/>
<circle cx="161.913" cy="63.8695" r="4.91304" transform="rotate(180 161.913 63.8695)" fill="#E6A14B" fill-opacity="0.3"/>
<circle cx="299.478" cy="44.2177" r="4.91304" transform="rotate(180 299.478 44.2177)" fill="#E6A14B" fill-opacity="0.3"/>
<circle cx="279.826" cy="44.2173" r="4.91304" transform="rotate(180 279.826 44.2173)" fill="#E6A14B" fill-opacity="0.3"/>
<circle cx="260.174" cy="44.2173" r="4.91304" transform="rotate(180 260.174 44.2173)" fill="#E6A14B" fill-opacity="0.3"/>
<circle cx="240.522" cy="44.2173" r="4.91304" transform="rotate(180 240.522 44.2173)" fill="#E6A14B" fill-opacity="0.3"/>
<circle cx="220.869" cy="44.2173" r="4.91304" transform="rotate(180 220.869 44.2173)" fill="#E6A14B" fill-opacity="0.3"/>
<circle cx="201.217" cy="44.2173" r="4.91304" transform="rotate(180 201.217 44.2173)" fill="#E6A14B" fill-opacity="0.3"/>
<circle cx="181.565" cy="44.2173" r="4.91304" transform="rotate(180 181.565 44.2173)" fill="#E6A14B" fill-opacity="0.3"/>
<circle cx="161.913" cy="44.2173" r="4.91304" transform="rotate(180 161.913 44.2173)" fill="#E6A14B" fill-opacity="0.3"/>
<circle cx="299.478" cy="24.5653" r="4.91304" transform="rotate(180 299.478 24.5653)" fill="#E6A14B" fill-opacity="0.3"/>
<circle cx="279.826" cy="24.5652" r="4.91304" transform="rotate(180 279.826 24.5652)" fill="#E6A14B" fill-opacity="0.3"/>
<circle cx="260.174" cy="24.5652" r="4.91304" transform="rotate(180 260.174 24.5652)" fill="#E6A14B" fill-opacity="0.3"/>
<circle cx="240.522" cy="24.5652" r="4.91304" transform="rotate(180 240.522 24.5652)" fill="#E6A14B" fill-opacity="0.3"/>
<circle cx="220.869" cy="24.5652" r="4.91304" transform="rotate(180 220.869 24.5652)" fill="#E6A14B" fill-opacity="0.3"/>
<circle cx="201.217" cy="24.5652" r="4.91304" transform="rotate(180 201.217 24.5652)" fill="#E6A14B" fill-opacity="0.3"/>
<circle cx="181.565" cy="24.5652" r="4.91304" transform="rotate(180 181.565 24.5652)" fill="#E6A14B" fill-opacity="0.3"/>
<circle cx="161.913" cy="24.5652" r="4.91304" transform="rotate(180 161.913 24.5652)" fill="#E6A14B" fill-opacity="0.3"/>
<circle cx="299.478" cy="4.91301" r="4.91304" transform="rotate(180 299.478 4.91301)" fill="#E6A14B" fill-opacity="0.3"/>
<circle cx="279.826" cy="4.91301" r="4.91304" transform="rotate(180 279.826 4.91301)" fill="#E6A14B" fill-opacity="0.3"/>
<circle cx="260.174" cy="4.91301" r="4.91304" transform="rotate(180 260.174 4.91301)" fill="#E6A14B" fill-opacity="0.3"/>
<circle cx="240.522" cy="4.91301" r="4.91304" transform="rotate(180 240.522 4.91301)" fill="#E6A14B" fill-opacity="0.3"/>
<circle cx="220.869" cy="4.91301" r="4.91304" transform="rotate(180 220.869 4.91301)" fill="#E6A14B" fill-opacity="0.3"/>
<circle cx="201.217" cy="4.91301" r="4.91304" transform="rotate(180 201.217 4.91301)" fill="#E6A14B" fill-opacity="0.3"/>
<circle cx="181.565" cy="4.91301" r="4.91304" transform="rotate(180 181.565 4.91301)" fill="#E6A14B" fill-opacity="0.3"/>
<circle cx="161.913" cy="4.91301" r="4.91304" transform="rotate(180 161.913 4.91301)" fill="#E6A14B" fill-opacity="0.3"/>
</svg>
