<svg width="36" height="34" viewBox="0 0 36 34" fill="none" xmlns="http://www.w3.org/2000/svg">
<path d="M17.8472 0C27.7157 0 35.6944 7.6 35.6944 17C35.6944 26.4 27.7157 34 17.8472 34C7.97875 34 0 26.4 0 17C0 7.6 7.97875 0 17.8472 0ZM17.8472 32C26.5609 32 33.5948 25.3 33.5948 17C33.5948 8.7 26.5609 2 17.8472 2C9.13357 2 2.09967 8.7 2.09967 17C2.09967 25.3 9.13357 32 17.8472 32Z" fill="#CECCCD"/>
<path d="M18.1625 7.29995L19.6322 8.69995L10.9186 17L19.6322 25.3L18.1625 26.7L7.97905 17L18.1625 7.29995Z" fill="#599952"/>
<path d="M27.2958 18L9.44862 18V16L27.2958 16V18Z" fill="#599952"/>
</svg>
