<svg width="19" height="25" viewBox="0 0 19 25" fill="none" xmlns="http://www.w3.org/2000/svg">
<path d="M14.9847 5.1084H18.3284V8.45205H14.9847V5.1084ZM14.9847 10.1239H18.3284V13.4675H14.9847V10.1239ZM9.96924 5.1084H13.3129V8.45205H9.96924V5.1084ZM9.96924 10.1239H13.3129V13.4675H9.96924V10.1239Z" fill="#E6A14B"/>
<path d="M7.87936 20.9909C8.57185 20.9909 9.13323 20.4295 9.13323 19.737C9.13323 19.0445 8.57185 18.4832 7.87936 18.4832C7.18686 18.4832 6.62549 19.0445 6.62549 19.737C6.62549 20.4295 7.18686 20.9909 7.87936 20.9909Z" fill="#E6A14B"/>
<path d="M13.3126 24.3343H2.44575C2.00249 24.3338 1.57751 24.1576 1.26408 23.8441C0.950649 23.5307 0.774368 23.1057 0.773926 22.6625V2.60054C0.774368 2.15728 0.950649 1.7323 1.26408 1.41887C1.57751 1.10543 2.00249 0.929154 2.44575 0.928711H13.3126V2.60054H2.44575V22.6625H13.3126V15.9752H14.9845V22.6625C14.984 23.1057 14.8077 23.5307 14.4943 23.8441C14.1809 24.1576 13.7559 24.3338 13.3126 24.3343Z" fill="#E6A14B"/>
</svg>
