<svg width="21" height="30" viewBox="0 0 21 30" fill="none" xmlns="http://www.w3.org/2000/svg">
<path d="M10.7214 23.2282C10.0206 23.2284 9.34175 22.981 8.80191 22.5289C8.26206 22.0767 7.89508 21.448 7.76426 20.7513C5.79558 20.1376 4.06218 18.9237 2.80095 17.2755C1.84777 16.0333 1.19283 14.584 0.887776 13.0419C0.582722 11.4998 0.635901 9.90704 1.04312 8.38928C1.45034 6.87152 2.20045 5.47027 3.2343 4.29606C4.26815 3.12184 5.55746 2.20678 7.00052 1.62306C8.44358 1.03934 10.0009 0.802912 11.5497 0.932436C13.0985 1.06196 14.5964 1.55389 15.9252 2.36943C17.254 3.18496 18.3773 4.30179 19.2067 5.63182C20.0361 6.96186 20.5487 8.46871 20.7042 10.0335C20.7584 10.5919 20.303 11.0466 19.7493 11.0466C19.1955 11.0466 18.7522 10.5898 18.686 10.0335C18.5069 8.59779 17.952 7.23655 17.0787 6.09065C16.2054 4.94476 15.0454 4.05583 13.7187 3.51586C12.392 2.97588 10.9468 2.80448 9.5327 3.01937C8.11859 3.23427 6.7869 3.82766 5.67543 4.73814C4.56396 5.64863 3.71308 6.84314 3.21084 8.19807C2.7086 9.553 2.57324 11.0191 2.81877 12.4448C3.0643 13.8704 3.68179 15.2038 4.60736 16.3069C5.53293 17.4099 6.73294 18.2427 8.08325 18.719C8.33853 18.2477 8.71252 17.8531 9.16724 17.5754C9.62195 17.2977 10.1412 17.1467 10.6722 17.1378C11.2032 17.1289 11.7271 17.2624 12.1907 17.5247C12.6543 17.787 13.041 18.1688 13.3116 18.6313C13.5821 19.0938 13.727 19.6205 13.7313 20.1579C13.7356 20.6954 13.5993 21.2244 13.3363 21.6913C13.0732 22.1582 12.6927 22.5464 12.2334 22.8163C11.7742 23.0862 11.2525 23.2283 10.7214 23.2282ZM2.69662 20.1828V20.128C2.14833 19.6305 1.64604 19.0835 1.19599 18.4936C0.865635 18.9935 0.689653 19.5815 0.690432 20.1828V21.1979C0.690432 25.1996 4.42195 29.319 10.7214 29.319C17.0208 29.319 20.7523 25.1996 20.7523 21.1979V20.1828C20.7523 19.3751 20.4353 18.6005 19.8709 18.0294C19.3066 17.4583 18.5412 17.1374 17.7431 17.1374H14.7338C15.1731 17.7262 15.4861 18.4165 15.6366 19.1677H17.7431C18.0091 19.1677 18.2642 19.2746 18.4524 19.465C18.6405 19.6554 18.7462 19.9136 18.7462 20.1828V21.1979C18.7462 24.1175 15.8733 27.2887 10.7214 27.2887C5.56949 27.2887 2.69662 24.1175 2.69662 21.1979V20.1828ZM10.7214 15.1072C9.57319 15.1055 8.45947 15.5041 7.56766 16.236C6.6904 15.6923 5.9661 14.9294 5.46439 14.0206C4.96267 13.1118 4.70041 12.0877 4.70282 11.0466C4.70311 9.98476 4.97772 8.94142 5.49941 8.02009C6.0211 7.09877 6.77173 6.33147 7.67686 5.79432C8.58199 5.25717 9.61016 4.96882 10.6594 4.95788C11.7086 4.94694 12.7424 5.21379 13.6583 5.73196C14.5742 6.25013 15.3403 7.0016 15.8806 7.91186C16.4209 8.82211 16.7167 9.85951 16.7387 10.9211C16.7606 11.9828 16.5078 13.0318 16.0055 13.9641C15.5032 14.8964 14.7688 15.6796 13.8751 16.236C12.9833 15.5041 11.8696 15.1055 10.7214 15.1072ZM6.70901 11.0466C6.70901 12.1236 7.13174 13.1564 7.88421 13.9179C8.63667 14.6794 9.65724 15.1072 10.7214 15.1072C11.7855 15.1072 12.8061 14.6794 13.5586 13.9179C14.311 13.1564 14.7338 12.1236 14.7338 11.0466C14.7338 9.96971 14.311 8.9369 13.5586 8.17541C12.8061 7.41391 11.7855 6.98611 10.7214 6.98611C9.65724 6.98611 8.63667 7.41391 7.88421 8.17541C7.13174 8.9369 6.70901 9.96971 6.70901 11.0466Z" fill="#E6A14B"/>
</svg>
