<svg width="14" height="21" viewBox="0 0 14 21" fill="none" xmlns="http://www.w3.org/2000/svg">
<path fill-rule="evenodd" clip-rule="evenodd" d="M12.421 8.95448C12.8307 9.36464 13.0608 9.92063 13.0608 10.5003C13.0608 11.08 12.8307 11.636 12.421 12.0462L4.17268 20.2974C3.96949 20.5005 3.72828 20.6616 3.46283 20.7715C3.19738 20.8814 2.91289 20.9379 2.6256 20.9378C2.33831 20.9378 2.05384 20.8811 1.78845 20.7711C1.52305 20.6611 1.28192 20.4999 1.07882 20.2967C0.875721 20.0935 0.714634 19.8523 0.604754 19.5869C0.494875 19.3214 0.438354 19.0369 0.438422 18.7496C0.43849 18.4623 0.495145 18.1779 0.605149 17.9125C0.715154 17.6471 0.876354 17.4059 1.07955 17.2028L7.78061 10.5003L1.07809 3.7978C0.869067 3.5961 0.702306 3.3548 0.587537 3.08797C0.472767 2.82114 0.412291 2.53413 0.409631 2.24367C0.406971 1.95322 0.462183 1.66515 0.572046 1.39626C0.681909 1.12737 0.844221 0.883056 1.04951 0.677569C1.25481 0.472082 1.49897 0.309538 1.76775 0.199422C2.03654 0.0893051 2.32456 0.0338205 2.61502 0.0362066C2.90547 0.0385927 3.19254 0.0988015 3.45948 0.213319C3.72642 0.327836 3.96788 0.49437 4.16977 0.703202L12.421 8.95448Z" fill="#599952"/>
</svg>
