<svg width="36" height="34" viewBox="0 0 36 34" fill="none" xmlns="http://www.w3.org/2000/svg">
<path d="M17.847 34C7.97851 34 -0.000244141 26.4 -0.000244141 17C-0.000244141 7.6 7.97851 0 17.847 0C27.7154 0 35.6942 7.6 35.6942 17C35.6942 26.4 27.7154 34 17.847 34ZM17.847 2C9.13333 2 2.09943 8.7 2.09943 17C2.09943 25.3 9.13333 32 17.847 32C26.5606 32 33.5945 25.3 33.5945 17C33.5945 8.7 26.5606 2 17.847 2Z" fill="#CECCCD"/>
<path d="M8.39819 16H26.2454V18H8.39819V16Z" fill="#599952"/>
<path d="M17.532 26.7001L16.0623 25.3L24.7759 17L16.0623 8.70005L17.532 7.30005L27.7154 17L17.532 26.7001Z" fill="#599952"/>
</svg>
