<svg width="22" height="22" viewBox="0 0 22 22" fill="none" xmlns="http://www.w3.org/2000/svg">
<path d="M18.7573 0.21875H19.8843C20.3289 0.21875 20.7554 0.395311 21.0698 0.709617C21.3843 1.02392 21.5611 1.45025 21.5614 1.89488V3.02283C21.5621 5.64964 20.5594 8.17751 18.7583 10.0896L17.5814 11.3393C17.095 11.8554 16.5846 12.3486 16.0519 12.817V17.6451C16.0519 18.2345 15.7424 18.7798 15.2373 19.0826L10.9114 21.6787C10.8132 21.7377 10.7023 21.7724 10.588 21.7798C10.4737 21.7872 10.3593 21.7672 10.2542 21.7215C10.1492 21.6757 10.0567 21.6055 9.98427 21.5167C9.91188 21.4279 9.86176 21.3231 9.8381 21.211L8.91522 16.8295C8.86755 16.7917 8.82271 16.7503 8.78105 16.7059L6.98706 14.795L5.07614 13C5.03172 12.9584 4.9904 12.9135 4.95251 12.8659L0.571972 11.943C0.459717 11.9196 0.354695 11.8696 0.265676 11.7974C0.176656 11.7251 0.106224 11.6325 0.060262 11.5275C0.0142996 11.4224 -0.0058591 11.3079 0.00146944 11.1935C0.00879798 11.079 0.043401 10.968 0.102389 10.8697L2.69947 6.54375C3.00231 6.03871 3.5476 5.72917 4.13697 5.72917H8.9641C9.43254 5.19716 9.92566 4.68741 10.4418 4.20158L11.6915 3.02283C13.6031 1.22205 16.1301 0.21906 18.7563 0.21875H18.7573ZM12.6776 4.06933L11.428 5.24713C10.2518 6.35527 9.20535 7.59338 8.3086 8.93767L6.20697 12.0906L7.98851 13.7619C7.99985 13.7723 8.01072 13.7832 8.0211 13.7945L9.69147 15.5751L12.8425 13.4744C14.1879 12.5773 15.427 11.5302 16.5359 10.3531L17.7127 9.10442C19.2627 7.45889 20.1256 5.28342 20.1248 3.02283V1.89583C20.1248 1.83229 20.0996 1.77135 20.0547 1.72642C20.0097 1.68149 19.9488 1.65625 19.8853 1.65625H18.7573C16.4973 1.65637 14.3226 2.51953 12.6776 4.06933ZM5.51122 19.625C4.3526 20.7836 1.77276 21.0098 0.965847 21.0529C0.9342 21.0549 0.902488 21.0502 0.87277 21.0392C0.843052 21.0281 0.815992 21.0109 0.793347 20.9887C0.77115 20.9661 0.753963 20.939 0.742901 20.9093C0.731839 20.8796 0.72715 20.8479 0.729139 20.8162C0.772264 20.0093 0.99843 17.4295 2.15706 16.2708C3.01956 15.4083 4.64872 15.4083 5.51122 16.2708C6.37372 17.1333 6.37372 18.7625 5.51122 19.625ZM4.94389 11.3948L7.11164 8.14129C7.33206 7.80971 7.56206 7.48483 7.79876 7.16667H4.13697C4.0957 7.16669 4.05512 7.17738 4.01919 7.1977C3.98326 7.21801 3.95319 7.24727 3.93189 7.28263L1.85518 10.7441L4.94389 11.3948ZM14.6154 13.9823C14.2963 14.22 13.9714 14.449 13.6398 14.6704L10.3882 16.8382L11.0379 19.9269L14.4994 17.8502C14.5348 17.8289 14.564 17.7988 14.5844 17.7629C14.6047 17.7269 14.6154 17.6864 14.6154 17.6451V13.9823ZM16.0529 7.16667C16.0528 7.3555 16.0156 7.54248 15.9432 7.71692C15.8709 7.89136 15.7649 8.04985 15.6314 8.18333C15.4978 8.31682 15.3392 8.42268 15.1648 8.49489C14.9903 8.5671 14.8033 8.60423 14.6144 8.60417C14.4256 8.6041 14.2386 8.56685 14.0642 8.49452C13.8897 8.4222 13.7312 8.31623 13.5978 8.18265C13.4643 8.04908 13.3584 7.89052 13.2862 7.71604C13.214 7.54155 13.1769 7.35455 13.1769 7.16571C13.1771 6.78433 13.3287 6.41863 13.5984 6.14904C13.8682 5.87946 14.234 5.72808 14.6154 5.72821C14.9968 5.72834 15.3625 5.87996 15.6321 6.14972C15.9016 6.41949 16.053 6.78529 16.0529 7.16667Z" fill="#7BD554"/>
</svg>
