<svg width="22" height="18" viewBox="0 0 22 18" fill="none" xmlns="http://www.w3.org/2000/svg">
<path fill-rule="evenodd" clip-rule="evenodd" d="M13.9032 2.21644C13.9491 2.07789 13.9669 1.93146 13.9556 1.78583C13.9443 1.6402 13.9042 1.49834 13.8375 1.36866C13.7709 1.23899 13.6791 1.12414 13.5676 1.03093C13.4562 0.937728 13.3273 0.868062 13.1886 0.826071C13.05 0.784079 12.9044 0.770617 12.7605 0.786483C12.6165 0.802349 12.4773 0.847219 12.3509 0.918433C12.2245 0.989647 12.1135 1.08575 12.0246 1.20105C11.9357 1.31634 11.8707 1.44848 11.8334 1.58962L7.5093 16.133C7.43887 16.4063 7.47623 16.6965 7.61352 16.9426C7.75081 17.1887 7.97733 17.3714 8.24543 17.4525C8.51353 17.5335 8.80232 17.5064 9.05105 17.3769C9.29979 17.2475 9.48907 17.0258 9.57909 16.7584L13.9032 2.21498V2.21644ZM5.70472 4.76735C5.90716 4.97187 6.02087 5.2491 6.02087 5.53815C6.02087 5.82721 5.90716 6.10444 5.70472 6.30896L2.86524 9.17401L5.70472 12.0391C5.89567 12.2458 5.99962 12.5193 5.99468 12.8019C5.98974 13.0845 5.87629 13.3541 5.67823 13.5539C5.48017 13.7538 5.21296 13.8683 4.9329 13.8732C4.65284 13.8782 4.3818 13.7733 4.17687 13.5807L0.573472 9.94481C0.371033 9.74029 0.257324 9.46306 0.257324 9.17401C0.257324 8.88496 0.371033 8.60772 0.573472 8.40321L4.17687 4.76735C4.37957 4.56309 4.65432 4.44836 4.9408 4.44836C5.22727 4.44836 5.50203 4.56309 5.70472 4.76735ZM15.7078 13.5807C15.5053 13.3761 15.3916 13.0989 15.3916 12.8099C15.3916 12.5208 15.5053 12.2436 15.7078 12.0391L18.5472 9.17401L15.7078 6.30896C15.5168 6.10218 15.4129 5.8287 15.4178 5.54612C15.4227 5.26354 15.5362 4.99393 15.7343 4.79408C15.9323 4.59424 16.1995 4.47976 16.4796 4.47478C16.7596 4.46979 17.0307 4.57468 17.2356 4.76735L20.839 8.40321C21.0414 8.60772 21.1552 8.88496 21.1552 9.17401C21.1552 9.46306 21.0414 9.74029 20.839 9.94481L17.2356 13.5807C17.0329 13.7849 16.7582 13.8997 16.4717 13.8997C16.1852 13.8997 15.9105 13.7849 15.7078 13.5807Z" fill="#E6A14B"/>
</svg>
