<svg width="23" height="24" viewBox="0 0 23 24" fill="none" xmlns="http://www.w3.org/2000/svg">
<path d="M19.5575 3.8437C18.5033 2.77923 17.2476 1.93535 15.8638 1.36128C14.4799 0.787208 12.9957 0.49445 11.4975 0.50008C5.21992 0.50008 0.103854 5.6147 0.0981035 11.8937C0.0981035 13.9048 0.624229 15.8612 1.61754 17.5934L0.00610352 23.5001L6.04935 21.916C7.72043 22.8277 9.59388 23.3047 11.4975 23.3031H11.5032C17.7822 23.3031 22.8969 18.1885 22.9026 11.9038C22.9039 10.406 22.6089 8.92273 22.0345 7.53943C21.4602 6.15614 20.6193 4.90012 19.5575 3.8437ZM11.4975 21.374C9.80004 21.3727 8.13405 20.916 6.67323 20.0515L6.32823 19.8445L2.7431 20.7846L3.70048 17.2872L3.47623 16.9264C2.5272 15.4175 2.02528 13.6705 2.02867 11.888C2.02867 6.67558 6.27935 2.42345 11.5032 2.42345C12.7477 2.42122 13.9804 2.66535 15.1301 3.14176C16.2798 3.61817 17.3238 4.31745 18.202 5.19927C19.083 6.07779 19.7815 7.12199 20.2572 8.27167C20.7328 9.42136 20.9763 10.6538 20.9735 11.898C20.9677 17.1291 16.717 21.374 11.4975 21.374ZM16.694 14.2814C16.4109 14.1391 15.0122 13.4505 14.7491 13.3528C14.4875 13.2593 14.2963 13.2105 14.1094 13.4951C13.9182 13.7783 13.372 14.4237 13.2081 14.6091C13.0442 14.8003 12.8746 14.8219 12.59 14.681C12.3068 14.5373 11.3882 14.2383 10.3015 13.2651C9.45335 12.5104 8.88554 11.576 8.71592 11.2928C8.55204 11.0082 8.7001 10.8558 8.84242 10.7135C8.96748 10.587 9.1256 10.38 9.26792 10.2161C9.41167 10.0523 9.4591 9.93152 9.55254 9.74177C9.64598 9.54914 9.60142 9.38527 9.53098 9.24295C9.4591 9.10064 8.89129 7.6962 8.65123 7.12983C8.42123 6.57064 8.18692 6.64827 8.01154 6.64108C7.84767 6.63102 7.65648 6.63102 7.46529 6.63102C7.32093 6.63469 7.17888 6.66812 7.04803 6.72922C6.91718 6.79031 6.80035 6.87776 6.70485 6.98608C6.44323 7.2707 5.71154 7.95927 5.71154 9.3637C5.71154 10.7681 6.73217 12.118 6.87592 12.3091C7.01679 12.5003 8.87979 15.3739 11.739 16.6101C12.4146 16.9048 12.9465 17.0788 13.3619 17.211C14.0447 17.4295 14.6614 17.3965 15.153 17.326C15.6993 17.2426 16.8364 16.636 17.0764 15.9705C17.3122 15.3035 17.3122 14.7342 17.2403 14.6149C17.1699 14.4941 16.9787 14.4237 16.694 14.2814Z" fill="white"/>
</svg>
