<svg width="15" height="15" viewBox="0 0 15 15" fill="none" xmlns="http://www.w3.org/2000/svg">
<path d="M14.576 11.0085L12.4827 8.91519C11.7351 8.16759 10.4642 8.46666 10.1651 9.43852C9.94084 10.1114 9.19323 10.4852 8.52039 10.3356C7.02518 9.96184 5.00664 8.01807 4.63284 6.4481C4.40856 5.77522 4.85712 5.02762 5.52997 4.80336C6.50185 4.50432 6.8009 3.23339 6.05329 2.48579L3.96 0.392493C3.36191 -0.130831 2.46479 -0.130831 1.94146 0.392493L0.521011 1.81294C-0.899439 3.30815 0.670533 7.27046 4.18428 10.7842C7.69802 14.298 11.6603 15.9427 13.1555 14.4475L14.576 13.027C15.0993 12.4289 15.0993 11.5318 14.576 11.0085Z" fill="white"/>
</svg>
