<svg width="24" height="24" viewBox="0 0 24 24" fill="none" xmlns="http://www.w3.org/2000/svg">
<path d="M1.02901 16.4446L6.81369 13.8523C7.07579 13.74 7.36176 13.6948 7.64571 13.7209C7.92966 13.747 8.20262 13.8435 8.43987 14.0017C8.46395 14.0171 8.48687 14.0343 8.50845 14.0531L11.5318 16.6246C11.5632 16.6417 11.5981 16.6513 11.6338 16.6526C11.6695 16.6538 11.705 16.6468 11.7375 16.632C13.6809 15.694 15.694 13.6931 16.6357 11.7767C16.6513 11.7447 16.6595 11.7095 16.6595 11.6738C16.6595 11.6382 16.6513 11.603 16.6357 11.571L14.0556 8.50963C14.0371 8.48698 14.0199 8.46326 14.0041 8.43861C13.8481 8.20044 13.7539 7.92717 13.73 7.64348C13.706 7.35978 13.7531 7.07459 13.867 6.81365L16.441 1.03874C16.5871 0.697844 16.8399 0.413548 17.1614 0.228524C17.4829 0.0434999 17.8557 -0.0322709 18.2239 0.0125833C19.8241 0.222954 21.2929 1.00879 22.3559 2.22324C23.4189 3.43768 24.0033 4.99764 24 6.6116C24 16.1997 16.1997 24 6.61165 24C4.99777 24.0031 3.43795 23.4186 2.22356 22.3556C1.00917 21.2926 0.223269 19.8239 0.0126476 18.2239C-0.0321121 17.8574 0.0426292 17.4863 0.225754 17.1657C0.408878 16.8451 0.690599 16.5922 1.02901 16.4446ZM6.61165 22.5305C15.3891 22.5305 22.5305 15.3891 22.5305 6.6116C22.5346 5.35514 22.0811 4.14017 21.2548 3.19369C20.4284 2.24721 19.2857 1.63397 18.0402 1.46855H18.012C17.9627 1.46948 17.9148 1.48529 17.8746 1.51391C17.8344 1.54254 17.8037 1.58264 17.7867 1.62897L15.203 7.39775C15.1882 7.42982 15.1806 7.4647 15.1806 7.5C15.1806 7.5353 15.1882 7.57017 15.203 7.60225L17.7879 10.6709C17.8072 10.6928 17.8248 10.7162 17.8406 10.7407C18.0023 10.9877 18.0976 11.2722 18.1171 11.5667C18.1366 11.8613 18.0798 12.1559 17.952 12.422C16.8659 14.6458 14.625 16.8695 12.3767 17.9557C12.1091 18.0827 11.813 18.1382 11.5175 18.1168C11.222 18.0953 10.9371 17.9976 10.6906 17.8332C10.6673 17.8173 10.644 17.8002 10.622 17.7818L7.59984 15.2103C7.57 15.1942 7.53703 15.1848 7.50322 15.1827C7.4694 15.1806 7.43553 15.1858 7.40392 15.198L1.61801 17.7904C1.57075 17.8105 1.53101 17.845 1.50442 17.8889C1.47783 17.9329 1.46573 17.9841 1.46984 18.0353C1.63439 19.2814 2.24705 20.4249 3.19332 21.2522C4.1396 22.0795 5.35473 22.5339 6.61165 22.5305Z" fill="#599952"/>
</svg>
