<svg width="24" height="24" viewBox="0 0 24 24" fill="none" xmlns="http://www.w3.org/2000/svg">
<path d="M17.0042 2.37458C18.3295 2.37839 19.5994 2.88669 20.5365 3.78847C21.4736 4.69025 22.0019 5.91223 22.0058 7.18753V16.8124C22.0019 18.0877 21.4736 19.3097 20.5365 20.2115C19.5994 21.1133 18.3295 21.6216 17.0042 21.6254H7.00197C5.67667 21.6216 4.40679 21.1133 3.46965 20.2115C2.53252 19.3097 2.00429 18.0877 2.00033 16.8124V7.18753C2.00429 5.91223 2.53252 4.69025 3.46965 3.78847C4.40679 2.88669 5.67667 2.37839 7.00197 2.37458H17.0042ZM17.0042 0.449707H7.00197C3.15081 0.449707 0 3.48165 0 7.18753V16.8124C0 20.5183 3.15081 23.5502 7.00197 23.5502H17.0042C20.8553 23.5502 24.0062 20.5183 24.0062 16.8124V7.18753C24.0062 3.48165 20.8553 0.449707 17.0042 0.449707Z" fill="white"/>
<path d="M18.504 7.1881C18.2073 7.1881 17.9172 7.10343 17.6704 6.94478C17.4237 6.78614 17.2314 6.56065 17.1178 6.29683C17.0043 6.03302 16.9746 5.74272 17.0324 5.46265C17.0903 5.18259 17.2332 4.92533 17.4431 4.72341C17.6529 4.5215 17.9202 4.38399 18.2113 4.32828C18.5023 4.27257 18.804 4.30116 19.0782 4.41044C19.3523 4.51972 19.5867 4.70477 19.7515 4.9422C19.9164 5.17963 20.0044 5.45877 20.0044 5.74432C20.0048 5.93404 19.9663 6.12196 19.891 6.29731C19.8158 6.47267 19.7053 6.63199 19.5659 6.76614C19.4265 6.90029 19.2609 7.00662 19.0787 7.07903C18.8965 7.15145 18.7012 7.18851 18.504 7.1881ZM12.0025 8.15028C12.7939 8.15028 13.5675 8.3761 14.2255 8.79917C14.8835 9.22224 15.3963 9.82357 15.6991 10.5271C16.002 11.2307 16.0812 12.0048 15.9268 12.7517C15.7725 13.4986 15.3914 14.1846 14.8318 14.7231C14.2722 15.2616 13.5593 15.6283 12.7831 15.7768C12.007 15.9254 11.2024 15.8491 10.4713 15.5577C9.7402 15.2663 9.1153 14.7728 8.67564 14.1396C8.23598 13.5065 8.00131 12.7621 8.00131 12.0005C8.00245 10.9797 8.42437 10.001 9.17449 9.2792C9.92462 8.55738 10.9417 8.15137 12.0025 8.15028ZM12.0025 6.22541C10.8155 6.22541 9.65519 6.56412 8.66824 7.19869C7.68129 7.83327 6.91206 8.73523 6.45782 9.79049C6.00358 10.8458 5.88473 12.0069 6.1163 13.1272C6.34787 14.2475 6.91946 15.2765 7.75879 16.0842C8.59812 16.8918 9.66749 17.4419 10.8317 17.6647C11.9959 17.8875 13.2026 17.7732 14.2992 17.3361C15.3958 16.899 16.3332 16.1587 16.9926 15.209C17.6521 14.2593 18.0041 13.1428 18.0041 12.0005C18.0041 10.4689 17.3718 8.99995 16.2462 7.91691C15.1207 6.83386 13.5942 6.22541 12.0025 6.22541Z" fill="white"/>
</svg>
