<svg width="70" height="67" viewBox="0 0 70 67" fill="none" xmlns="http://www.w3.org/2000/svg">
<path d="M34.77 66.9999C15.5442 66.9999 0 52.1935 0 33.8804C0 15.5673 15.5442 0.760986 34.77 0.760986C53.9958 0.760986 69.54 15.5673 69.54 33.8804C69.54 52.1935 53.9958 66.9999 34.77 66.9999ZM34.77 4.65739C17.7941 4.65739 4.09059 17.7104 4.09059 33.8804C4.09059 50.0505 17.7941 63.1035 34.77 63.1035C51.7459 63.1035 65.4494 50.0505 65.4494 33.8804C65.4494 17.7104 51.7459 4.65739 34.77 4.65739Z" fill="#CECCCD"/>
<path d="M53.9956 35.8289L19.2256 35.8289L19.2256 31.9325L53.9956 31.9325L53.9956 35.8289Z" fill="#E6A14B"/>
<path d="M36.201 14.9829L39.0645 17.7104L22.0885 33.8805L39.0645 50.0506L36.201 52.7781L16.3617 33.8805L36.201 14.9829Z" fill="#E6A14B"/>
</svg>
