<svg width="10" height="15" viewBox="0 0 10 15" fill="none" xmlns="http://www.w3.org/2000/svg">
<path d="M5.00001 0C2.24306 0 0 2.24306 0 5.00001C0 5.82765 0.206924 6.64825 0.600293 7.3761L4.72658 14.8389C4.78151 14.9384 4.88619 15 5.00001 15C5.11383 15 5.21851 14.9384 5.27344 14.8389L9.40125 7.37364C9.7931 6.64825 10 5.82762 10 4.99998C10 2.24306 7.75696 0 5.00001 0ZM5.00001 7.5C3.62153 7.5 2.50002 6.37849 2.50002 5.00001C2.50002 3.62153 3.62153 2.50002 5.00001 2.50002C6.37849 2.50002 7.5 3.62153 7.5 5.00001C7.5 6.37849 6.37849 7.5 5.00001 7.5Z" fill="white"/>
</svg>
