<svg width="44" height="40" viewBox="0 0 44 40" fill="none" xmlns="http://www.w3.org/2000/svg">
<g clip-path="url(#clip0_18_4961)">
<path d="M30.4154 25.6117C33.6545 25.6117 36.2803 22.888 36.2803 19.528C36.2803 16.1681 33.6545 13.4443 30.4154 13.4443C27.1763 13.4443 24.5505 16.1681 24.5505 19.528C24.5505 22.888 27.1763 25.6117 30.4154 25.6117Z" fill="white"/>
<path d="M23.839 1.03611L23.5386 0.856183C21.2433 -0.518451 18.2907 0.328987 16.9437 2.74899L0.725105 31.8887C-0.621824 34.3087 0.146974 37.3848 2.44227 38.7595L2.74269 38.9394C5.03799 40.314 7.99059 39.4666 9.33752 37.0466L25.5562 7.9069C26.9031 5.4869 26.1343 2.41074 23.839 1.03611Z" fill="white"/>
<path d="M0.325928 34.4166V34.5283C0.325928 37.3461 2.45748 39.6304 5.08689 39.6304H38.6589C41.2883 39.6304 43.4199 37.3461 43.4199 34.5283V34.4166C43.4199 31.5988 41.2883 29.3145 38.6589 29.3145H5.08689C2.45748 29.3145 0.325928 31.5988 0.325928 34.4166Z" fill="white"/>
<path d="M30.4154 25.8158C33.6545 25.8158 36.2803 23.0921 36.2803 19.7321C36.2803 16.3722 33.6545 13.6484 30.4154 13.6484C27.1763 13.6484 24.5505 16.3722 24.5505 19.7321C24.5505 23.0921 27.1763 25.8158 30.4154 25.8158Z" fill="#0099F6"/>
<path d="M23.839 1.24021L23.5386 1.06028C21.2433 -0.31435 18.2907 0.533088 16.9437 2.95309L0.725105 32.0928C-0.621824 34.5128 0.146974 37.5889 2.44227 38.9636L2.74269 39.1435C5.03799 40.5181 7.99059 39.6707 9.33752 37.2507L25.5562 8.111C26.9031 5.691 26.1343 2.61484 23.839 1.24021Z" fill="#0099F6"/>
<path d="M0.325928 34.6207V34.7324C0.325928 37.5502 2.45748 39.8345 5.08689 39.8345H38.6589C41.2883 39.8345 43.4199 37.5502 43.4199 34.7324V34.6207C43.4199 31.8029 41.2883 29.5186 38.6589 29.5186H5.08689C2.45748 29.5186 0.325928 31.8029 0.325928 34.6207Z" fill="#0099F6"/>
<path d="M30.375 25.9182C33.6881 25.9182 36.3739 23.1771 36.3739 19.7958C36.3739 16.4145 33.6881 13.6733 30.375 13.6733C27.062 13.6733 24.3762 16.4145 24.3762 19.7958C24.3762 23.1771 27.062 25.9182 30.375 25.9182Z" fill="#77DF46" fill-opacity="0.85"/>
</g>
<defs>
<clipPath id="clip0_18_4961">
<rect width="43.42" height="40" fill="white"/>
</clipPath>
</defs>
</svg>
