<svg width="44" height="40" viewBox="0 0 44 40" fill="none" xmlns="http://www.w3.org/2000/svg">
<ellipse cx="30.975" cy="19.821" rx="5.68917" ry="5.68917" transform="rotate(-14.7556 30.975 19.821)" fill="#E6A14B"/>
<path d="M10.7465 35.8836C9.50407 38.157 6.59475 39.1095 4.24839 38.011C1.90202 36.9125 1.00714 34.179 2.2496 31.9055L17.4369 4.11636C18.6794 1.84294 21.5887 0.890492 23.9351 1.989C26.2814 3.08751 27.1763 5.821 25.9338 8.09442L10.7465 35.8836Z" fill="#7BD554"/>
<path d="M6.91246 38.4684C4.37629 38.4775 2.18494 36.4333 2.01795 33.9027C1.85095 31.372 3.77155 29.3131 6.30772 29.304L38.2253 29.1893C40.7614 29.1802 42.9528 31.2244 43.1198 33.7551C43.2868 36.2857 41.3662 38.3446 38.83 38.3537L6.91246 38.4684Z" fill="#7BD554"/>
</svg>
