<svg width="22" height="22" viewBox="0 0 22 22" fill="none" xmlns="http://www.w3.org/2000/svg">
<path d="M21.265 1.4279C20.9803 1.19106 20.6367 1.03585 20.2708 0.978796C19.9049 0.921742 19.5303 0.964978 19.187 1.1039L1.26603 8.3389C0.882879 8.4966 0.556737 8.76707 0.33087 9.11442C0.105002 9.46177 -0.00991377 9.86959 0.00136816 10.2838C0.0126501 10.6979 0.149597 11.0989 0.394038 11.4334C0.63848 11.768 0.978863 12.0203 1.37003 12.1569L4.99503 13.4179L7.01503 20.0999C7.04271 20.1891 7.08277 20.2739 7.13403 20.3519C7.14203 20.3639 7.15303 20.3719 7.16103 20.3849C7.21996 20.4669 7.29112 20.5394 7.37203 20.5999C7.39461 20.6176 7.41797 20.6343 7.44203 20.6499C7.53675 20.7128 7.64162 20.7588 7.75203 20.7859L7.76503 20.7869L7.77103 20.7899C7.83786 20.8033 7.90586 20.81 7.97403 20.8099L7.99203 20.8069C8.09444 20.8052 8.19598 20.7877 8.29303 20.7549C8.31603 20.7469 8.33503 20.7349 8.35703 20.7249C8.42962 20.6951 8.49844 20.6569 8.56203 20.6109C8.61268 20.5679 8.66334 20.5249 8.71403 20.4819L11.416 17.4989L15.446 20.6209C15.8007 20.8972 16.2374 21.0474 16.687 21.0479C17.1583 21.0474 17.615 20.8848 17.9806 20.5875C18.3462 20.2901 18.5984 19.8761 18.695 19.4149L21.958 3.3979C22.0318 3.03756 22.0063 2.66394 21.8843 2.31696C21.7622 1.96998 21.5482 1.66268 21.265 1.4279ZM8.37003 13.7359C8.23153 13.8741 8.13691 14.0501 8.09803 14.2419L7.78803 15.7459L7.00403 13.1529L11.069 11.0359L8.37003 13.7359ZM16.672 19.0399L11.909 15.3499C11.7097 15.1961 11.4598 15.1231 11.2091 15.1453C10.9583 15.1675 10.7251 15.2834 10.556 15.4699L9.69003 16.4249L9.99603 14.9379L17.079 7.8549C17.2471 7.68582 17.3492 7.46226 17.367 7.22452C17.3848 6.98679 17.317 6.75053 17.176 6.55833C17.0349 6.36613 16.8299 6.23064 16.5978 6.17629C16.3656 6.12194 16.1217 6.1523 15.91 6.2619L5.74503 11.5539L2.02003 10.1909L19.999 2.9999L16.672 19.0399Z" fill="white"/>
</svg>
